{"title":"Kite.2014.1080p.BluRay.H264.AAC.MP4.Raven","uid":11127400,"size":1406101271,"categoryP":"video","categoryS":"hd___movies","magnet":"?xt=urn:btih:46a7f025042dc7b3fe32ddb4264c15ef65e7aed9&amp;dn=Kite.2014.1080p.BluRay.H264.AAC.MP4.Raven&amp;tr=udp%3A%2F%2Ftracker.openbittorrent.com%3A80&amp;tr=udp%3A%2F%2Fopen.demonii.com%3A1337&amp;tr=udp%3A%2F%2Ftracker.coppersurfer.tk%3A6969&amp;tr=udp%3A%2F%2Fexodus.desync.com%3A6969","seeders":0,"leechers":0,"uploader":"Raven1969","files":-1,"time":1411987848,"description":"Kite.2014.1080p.BluRay.H264.AAC.MP4.Raven.\n\n\n\n\n\nSpanish subs included.\n\n\n\n\n\nScreen images:\n\n\n &lt;a href=&quot;\nhttp://i.imgur.com/469cofm.png&quot; rel=&quot;nofollow&quot; target=&quot;_NEW&quot;&gt;\nhttp://i.imgur.com/469cofm.png&lt;/a&gt;\n\n\n &lt;a href=&quot;\nhttp://i.imgur.com/wXXEfaU.png&quot; rel=&quot;nofollow&quot; target=&quot;_NEW&quot;&gt;\nhttp://i.imgur.com/wXXEfaU.png&lt;/a&gt;\n\n\n &lt;a href=&quot;\nhttp://i.imgur.com/sTj1Fki.png&quot; rel=&quot;nofollow&quot; target=&quot;_NEW&quot;&gt;\nhttp://i.imgur.com/sTj1Fki.png&lt;/a&gt;\n\n\n &lt;a href=&quot;\nhttp://i.imgur.com/DSwYRSQ.png&quot; rel=&quot;nofollow&quot; target=&quot;_NEW&quot;&gt;\nhttp://i.imgur.com/DSwYRSQ.png&lt;/a&gt;\n\n\n &lt;a href=&quot;\nhttp://i.imgur.com/fke58K0.png&quot; rel=&quot;nofollow&quot; target=&quot;_NEW&quot;&gt;\nhttp://i.imgur.com/fke58K0.png&lt;/a&gt;\n\n\n\n &lt;a href=&quot;\nhttp://i.imgur.com/EqvZZqE.png&quot; rel=&quot;nofollow&quot; target=&quot;_NEW&quot;&gt;\nhttp://i.imgur.com/EqvZZqE.png&lt;/a&gt;\n\n\n\n\n\n\n\nIMDB:\n\n\n\n &lt;a href=&quot;\nhttp://www.imdb.com/title/tt2044801&quot; rel=&quot;nofollow&quot; target=&quot;_NEW&quot;&gt;\nhttp://www.imdb.com/title/tt2044801&lt;/a&gt;\n\n\n\n\nIMDB Rating:  4.4\n\n\n\n\nStoryline:\n\nWhen her cop father is killed, a young woman tracks the murder with the apparent help of his ex-partner.\nNever Underestimate a Girl with Nothing to Lose. Based on the groundbreaking, cult classic anime, KITE tells the story of Sawa (India Eisley,&quot;The Secret Life of the American Teenager,&quot; Underworld: Awakening), a young woman living in a corrupt society where crime and gangs terrorize the streets. When Sawa's mother and policeman father are found victims of a grisly double homicide, she begins a ruthless pursuit for the man who murdered them. With the help of her father's ex-partner, Karl Aker (Samuel L. Jackson, Captain America: The Winter Soldier, The Avengers, Django Unchained), and a mysterious friend from her past (Callan McAuliffe, The Great Gatsby, I Am Number Four), she becomes a merciless teen assassin, blasting her way through the dark world of human trafficking only to uncover a devastating truth.\n\n\n\nGeneral\nFormat                                   : MPEG-4\nFormat profile                           : Base Media\nCodec ID                                 : isom\nFile size                                : 1.31 GiB\nDuration                                 : 1h 34mn\nOverall bit rate mode                    : Variable\nOverall bit rate                         : 1 982 Kbps\nEncoded date                             : UTC 2014-09-29 08:30:11\nTagged date                              : UTC 2014-09-29 08:30:11\nWriting application                      : My MP4Box GUI 0.6.0.6 &lt;http://my-mp4box-gui.zymichost.com&gt;\n\nVideo\nID                                       : 1\nFormat                                   : AVC\nFormat/Info                              : Advanced Video Codec\nFormat profile                           : &lt;a class=&quot;__cf_email__&quot; href=&quot;/cdn-cgi/l/email-protection&quot; data-cfemail=&quot;eea6878986aea2dac0de&quot;&gt;[email&amp;#160;protected]&lt;/a&gt;&lt;script data-cfhash='f9e31' type=&quot;text/javascript&quot;&gt;\n/* &lt;![CDATA[ */!function(){try{var t=&quot;currentScript&quot;in document?document.currentScript:function(){for(var t=document.getElementsByTagName(&quot;script&quot;),e=t.length;e--;)if(t[e].getAttribute(&quot;data-cfhash&quot;))return t[e]}();if(t&amp;&amp;t.previousSibling){var e,r,n,i,c=t.previousSibling,a=c.getAttribute(&quot;data-cfemail&quot;);if(a){for(e=&quot;&quot;,r=parseInt(a.substr(0,2),16),n=2;a.length-n;n+=2)i=parseInt(a.substr(n,2),16)^r,e+=String.fromCharCode(i);e=document.createTextNode(e),c.parentNode.replaceChild(e,c)}t.parentNode.removeChild(t);}}catch(u){}}()/* ]]&gt; */&lt;/script&gt;\nFormat settings, CABAC                   : Yes\nFormat settings, ReFrames                : 6 frames\nCodec ID                                 : avc1\nCodec ID/Info                            : Advanced Video Coding\nDuration                                 : 1h 29mn\nBit rate                                 : 2 000 Kbps\nMaximum bit rate                         : 44.9 Mbps\nWidth                                    : 1 920 pixels\nHeight                                   : 808 pixels\nDisplay aspect ratio                     : 2.40:1\nFrame rate mode                          : Constant\nFrame rate                               : 23.976 fps\nColor space                              : YUV\nChroma subsampling                       : 4:2:0\nBit depth                                : 8 bits\nScan type                                : Progressive\nBits/(Pixel*Frame)                       : 0.054\nStream size                              : 1.25 GiB (95%)\nWriting library                          : x264 core 128\nLanguage                                 : English\nEncoded date                             : UTC 2014-09-29 08:07:13\nTagged date                              : UTC 2014-09-29 08:31:40\n\nAudio\nID                                       : 3\nFormat                                   : AAC\nFormat/Info                              : Advanced Audio Codec\nFormat profile                           : LC\nCodec ID                                 : 40\nDuration                                 : 1h 29mn\nBit rate mode                            : Variable\nBit rate                                 : 93.4 Kbps\nMaximum bit rate                         : 101 Kbps\nChannel(s)                               : 2 channels\nChannel positions                        : Front: L R\nSampling rate                            : 48.0 KHz\nCompression mode                         : Lossy\nStream size                              : 59.9 MiB (4%)\nTitle                                    : Audio AAC LC 96kb.aac\nEncoded date                             : UTC 2014-09-29 08:31:29\nTagged date                              : UTC 2014-09-29 08:31:40\n\nMenu\nID                                       : 2\nCodec ID                                 : text\nDuration                                 : 1h 34mn\nEncoded date                             : UTC 2014-09-29 08:08:41\nTagged date                              : UTC 2014-09-29 08:31:40\nBit rate mode                            : CBR\n\n\nPLEASE  SEED FOR AS LONG AS POSSIBLE TO KEEP THE TORRENT ALIVE :-)","torrent":{"xt":"urn:btih:46a7f025042dc7b3fe32ddb4264c15ef65e7aed9","amp;dn":"Kite.2014.1080p.BluRay.H264.AAC.MP4.Raven","amp;tr":["udp%3A%2F%2Ftracker.openbittorrent.com%3A80","udp%3A%2F%2Fopen.demonii.com%3A1337","udp%3A%2F%2Ftracker.coppersurfer.tk%3A6969","udp%3A%2F%2Fexodus.desync.com%3A6969"],"infoHash":"46a7f025042dc7b3fe32ddb4264c15ef65e7aed9","infoHashBuffer":{"type":"Buffer","data":[70,167,240,37,4,45,199,179,254,50,221,180,38,76,21,239,101,231,174,217]},"announce":[],"urlList":[]}}